<svg xmlns="http://www.w3.org/2000/svg" width="35" height="41" viewBox="0 0 35 41">
  <defs>
    <style>
      .cls-1 {
        fill-rule: evenodd;
      }
    </style>
  </defs>
  <path id="Address" class="cls-1" d="M1221.15,1562.09c4.24-6.85,3.7-5.99,3.83-6.17a13.4,13.4,0,0,0,2.35-7.63,12.838,12.838,0,1,0-25.66,0,13.48,13.48,0,0,0,2.42,7.73l3.76,6.07c-4.02.63-10.85,2.53-10.85,6.7,0,1.52.96,3.69,5.56,5.38a35.85,35.85,0,0,0,11.94,1.83c8.4,0,17.5-2.44,17.5-7.21C1232,1564.62,1225.18,1562.73,1221.15,1562.09Zm-15.11-7.4a0.209,0.209,0,0,0-.04-0.06,11.009,11.009,0,0,1-2-6.34,10.507,10.507,0,1,1,21,0,10.91,10.91,0,0,1-1.92,6.22c-0.11.16,0.48-.78-8.58,13.85Zm8.46,18.91c-9.18,0-15.17-2.78-15.17-4.81,0-1.36,3.08-3.6,9.9-4.47l4.29,6.92a1.137,1.137,0,0,0,1.96,0l4.29-6.92c6.82,0.87,9.9,3.11,9.9,4.47C1229.67,1570.8,1223.73,1573.6,1214.5,1573.6Zm0-31.31a6.008,6.008,0,1,0,5.83,6A5.919,5.919,0,0,0,1214.5,1542.29Zm0,9.61a3.607,3.607,0,1,1,3.5-3.61A3.561,3.561,0,0,1,1214.5,1551.9Z" transform="translate(-1197 -1535)"/>
</svg>
