<svg xmlns="http://www.w3.org/2000/svg" width="22" height="22" viewBox="0 0 22 22">
  <defs>
    <style>
      .cls-1 {
        fill: #38a8cd;
        fill-rule: evenodd;
      }
    </style>
  </defs>
  <path id="api" class="cls-1" d="M9903.28,807.643h2.07A0.646,0.646,0,0,0,9906,807v-6.213a0.647,0.647,0,0,0-.65-0.645h-5.56v-1.426a2.72,2.72,0,0,0-5.44,0v1.426h-5.56a0.647,0.647,0,0,0-.65.645v5.569h-1.43a2.716,2.716,0,0,0,0,5.431h1.43v5.568a0.646,0.646,0,0,0,.65.645H9895a0.638,0.638,0,0,0,.64-0.645v-2.071a1.43,1.43,0,0,1,2.86,0v2.071a0.638,0.638,0,0,0,.64.645h6.21a0.646,0.646,0,0,0,.65-0.645v-6.213a0.646,0.646,0,0,0-.65-0.644h-2.07A1.427,1.427,0,0,1,9903.28,807.643Zm0,4.143h1.43v4.924h-4.92v-1.427a2.72,2.72,0,0,0-5.44,0v1.427h-4.92v-5.569a0.644,0.644,0,0,0-.64-0.644h-2.08a1.427,1.427,0,0,1,0-2.854h2.08a0.644,0.644,0,0,0,.64-0.644V801.43H9895a0.638,0.638,0,0,0,.64-0.644v-2.071a1.43,1.43,0,0,1,2.86,0v2.071a0.638,0.638,0,0,0,.64.644h5.57v4.925h-1.43A2.716,2.716,0,0,0,9903.28,811.786Z" transform="translate(-9884 -796)"/>
</svg>
