<svg xmlns="http://www.w3.org/2000/svg" width="52" height="52" viewBox="0 0 52 52">
  <defs>
    <style>
      .cls-1 {
        fill: #fff;
        stroke: #48afd1;
        stroke-width: 2px;
      }

      .cls-2 {
        fill: #48afd1;
        fill-rule: evenodd;
      }
    </style>
  </defs>
  <circle class="cls-1" cx="26" cy="26" r="25"/>
  <path id="Forma_1_copy_2" data-name="Forma 1 copy 2" class="cls-2" d="M28,29.348a1.251,1.251,0,0,1-.891-0.372l-7.739-7.81a1.28,1.28,0,0,1,0-1.8,1.253,1.253,0,0,1,1.783,0L28,26.278l6.848-6.911a1.252,1.252,0,0,1,1.782,0,1.28,1.28,0,0,1,0,1.8l-7.739,7.81A1.251,1.251,0,0,1,28,29.348Zm0,9a1.251,1.251,0,0,1-.891-0.372l-7.739-7.81a1.28,1.28,0,0,1,0-1.8,1.253,1.253,0,0,1,1.783,0L28,35.278l6.848-6.911a1.252,1.252,0,0,1,1.782,0,1.28,1.28,0,0,1,0,1.8l-7.739,7.81A1.251,1.251,0,0,1,28,38.348Z" transform="translate(-2 -2)"/>
</svg>
