<svg width="37" height="37" viewBox="0 0 37 37" fill="none" xmlns="http://www.w3.org/2000/svg">
<circle cx="18.5" cy="18.5" r="18.5" fill="#FA562A"/>
<path d="M18.7809 13.6247C19.1259 13.1934 19.056 12.5641 18.6247 12.2191C18.1934 11.8741 17.5641 11.944 17.2191 12.3753L18.7809 13.6247ZM14 18L13.2191 17.3753L12.7194 18L13.2191 18.6247L14 18ZM17.2191 23.6247C17.5641 24.056 18.1934 24.1259 18.6247 23.7809C19.056 23.4359 19.1259 22.8066 18.7809 22.3753L17.2191 23.6247ZM23 19C23.5523 19 24 18.5523 24 18C24 17.4477 23.5523 17 23 17V19ZM17.2191 12.3753L13.2191 17.3753L14.7809 18.6247L18.7809 13.6247L17.2191 12.3753ZM13.2191 18.6247L17.2191 23.6247L18.7809 22.3753L14.7809 17.3753L13.2191 18.6247ZM14 19H23V17H14V19Z" fill="white"/>
</svg>
