<svg xmlns="http://www.w3.org/2000/svg" width="30.09" height="37.91" viewBox="0 0 30.09 37.91">
  <defs>
    <style>
      .cls-1 {
        fill: #131313;
        fill-rule: evenodd;
      }
    </style>
  </defs>
  <path id="Bell" class="cls-1" d="M1516.7,1569.45c-1.39-1.29-4.63-5.04-4.63-11.96v-3.75a9.881,9.881,0,0,0-6.3-9.16,4.583,4.583,0,0,0,.99-2.85,4.711,4.711,0,0,0-9.42,0,4.583,4.583,0,0,0,.99,2.85,9.881,9.881,0,0,0-6.3,9.16v3.75c0,6.91-3.24,10.67-4.63,11.96a1.242,1.242,0,0,0-.31,1.37,1.263,1.263,0,0,0,1.18.79h9.24a4.735,4.735,0,0,0,9.08,0h9.24a1.263,1.263,0,0,0,1.18-.79A1.238,1.238,0,0,0,1516.7,1569.45Zm-14.65-29.86a2.14,2.14,0,1,1-2.18,2.14A2.164,2.164,0,0,1,1502.05,1539.59Zm0,32.91a2.192,2.192,0,0,1-1.77-.89h3.54A2.192,2.192,0,0,1,1502.05,1572.5Zm3.45-3.39h-14.47a19.33,19.33,0,0,0,3.54-11.62v-3.75a7.481,7.481,0,0,1,14.96,0v3.75a19.33,19.33,0,0,0,3.54,11.62h-7.57Z" transform="translate(-1487 -1537.09)"/>
</svg>
