<svg xmlns="http://www.w3.org/2000/svg" width="23" height="20" viewBox="0 0 23 20">
  <defs>
    <style>
      .cls-1 {
        fill: #38a8cd;
        fill-rule: evenodd;
      }
    </style>
  </defs>
  <path id="billing" class="cls-1" d="M10271.3,810.856a0.7,0.7,0,0,0-.7.714v5h-20.2V808h7.9a0.719,0.719,0,1,0,0-1.428h-7.9v-2.857h7.9a0.719,0.719,0,1,0,0-1.429h-7.9a1.4,1.4,0,0,0-1.4,1.429V816.57a1.4,1.4,0,0,0,1.4,1.429h20.2a1.4,1.4,0,0,0,1.4-1.429v-5A0.7,0.7,0,0,0,10271.3,810.856Zm-15.8,0h-2.9a0.714,0.714,0,0,0,0,1.428h2.9A0.714,0.714,0,0,0,10255.5,810.856Zm16.1-10.659-5.1-2.142a0.566,0.566,0,0,0-.5,0l-5.1,2.142a0.807,0.807,0,0,0-.4.658v2.858c0,3.93,1.5,6.228,5.4,8.478a0.565,0.565,0,0,0,.3.093,0.678,0.678,0,0,0,.4-0.093c3.9-2.246,5.4-4.543,5.4-8.478v-2.858A0.807,0.807,0,0,0,10271.6,800.2Zm-1,3.516c0,3.3-1.1,5.115-4.4,7.028-3.2-1.918-4.3-3.734-4.3-7.028v-2.387l4.3-1.836,4.4,1.836v2.387Zm-1.7-1.273a0.835,0.835,0,0,0-1.1.111l-2.2,2.809-0.9-1.328a0.73,0.73,0,0,0-1-.2,0.762,0.762,0,0,0-.2.991l1.4,2.143a1.006,1.006,0,0,0,.6.319h0a0.768,0.768,0,0,0,.6-0.269l2.9-3.572A0.768,0.768,0,0,0,10268.9,802.44Z" transform="translate(-10249 -798)"/>
</svg>
