<svg xmlns="http://www.w3.org/2000/svg" width="58.03" height="58.03" viewBox="0 0 58.03 58.03">
  <defs>
    <style>
      .cls-1 {
        fill: #d2d2d2;
        fill-rule: evenodd;
      }
    </style>
  </defs>
  <path class="cls-1" d="M5167.29,5824.8l-26.32,13.49-10.47-5.16,25.86-12.77a2.1,2.1,0,0,1,1.89,0Zm16.85,8.33-26.79,13.29-10.03-4.95-1.45-.74,26.35-13.49,1.45,0.74Zm-28.94,17.11-0.03,27.95-25.66-13.4a2.241,2.241,0,0,1-1.18-1.97v-25.86l10.87,5.36v9.43a2.175,2.175,0,1,0,4.35,0v-7.25l1.45,0.71Zm31.11-13.25-26.76,13.22-0.03,27.95,26.82-14.01Z" transform="translate(-5128.31 -5820.16)"/>
</svg>
