<svg xmlns="http://www.w3.org/2000/svg" width="36" height="39.97" viewBox="0 0 36 39.97">
  <defs>
    <style>
      .cls-1 {
        fill-rule: evenodd;
      }
    </style>
  </defs>
  <path id="Box" class="cls-1" d="M1068,1545.1h0v-0.09a0.06,0.06,0,0,1-.01-0.04,0.09,0.09,0,0,0-.01-0.05,0.433,0.433,0,0,1-.01-0.05c0-.01-0.01-0.02-0.01-0.03a0.076,0.076,0,0,0-.02-0.05,0.037,0.037,0,0,0-.01-0.03c-0.01-.02-0.01-0.03-0.02-0.05s-0.01-.02-0.02-0.03a0.052,0.052,0,0,0-.02-0.04c-0.01-.01-0.01-0.03-0.02-0.04a0.053,0.053,0,0,1-.02-0.03,0.151,0.151,0,0,1-.04-0.04,0.053,0.053,0,0,0-.02-0.03l-0.04-.04a0.038,0.038,0,0,0-.02-0.02,0.151,0.151,0,0,1-.04-0.04c-0.01-.01-0.03-0.01-0.04-0.02l-0.03-.03c-0.02-.01-0.05-0.03-0.07-0.04a0.01,0.01,0,0,1-.01-0.01h-0.01l-17.07-9.19a0.917,0.917,0,0,0-.88,0l-17.08,9.19a0.02,0.02,0,0,1-.02.01c0,0.01-.01.01-0.02,0.01l-0.03.03a0.219,0.219,0,0,0-.05.03,0.176,0.176,0,0,1-.05.04,0.151,0.151,0,0,1-.04.04l-0.05.05c-0.01.01-.02,0.03-0.03,0.04s-0.03.04-.04,0.06a0.138,0.138,0,0,0-.03.04l-0.03.06a0.147,0.147,0,0,1-.02.04,0.689,0.689,0,0,1-.03.08,0.227,0.227,0,0,0-.01.04,0.359,0.359,0,0,0-.02.11v0.03a0.277,0.277,0,0,0-.01.09v15.33a0.925,0.925,0,0,0,1.85,0v-13.84l3.32,1.71v4.89a0.925,0.925,0,0,0,1.85,0v-3.75l4.68,2.47v7.3l-5.17-2.71a0.929,0.929,0,0,0-1.25.37,0.89,0.89,0,0,0,.38,1.22l6.53,3.43a0.924,0.924,0,0,0,.91-0.02,0.9,0.9,0,0,0,.45-0.77v-8.13l3.53,1.81v18.19l-15.73-8.01a0.942,0.942,0,0,0-1.25.38,0.917,0.917,0,0,0,.4,1.23l17.07,8.7a0.227,0.227,0,0,1,.04.01,0.076,0.076,0,0,0,.04.02,0.488,0.488,0,0,1,.07.03c0.02,0,.03.01,0.05,0.01s0.05,0.01.08,0.02h0.03a0.487,0.487,0,0,0,.12.01h0a0.487,0.487,0,0,0,.12-0.01h0.03c0.03-.01.06-0.01,0.08-0.02s0.03-.01.05-0.01a0.488,0.488,0,0,1,.07-0.03,0.076,0.076,0,0,0,.04-0.02,0.227,0.227,0,0,1,.04-0.01l17.07-8.71a0.884,0.884,0,0,0,.5-0.8V1545.1Zm-27.72,2.73,6.37-3.29,4.25,2.18-6.02,3.45Zm10.64,24.77v-18.19l12.18-6.25a0.893,0.893,0,0,0,.39-1.22,0.921,0.921,0,0,0-1.24-.38l-12.19,6.25-3.25-1.65,6.46-3.7a0.91,0.91,0,0,0,.46-0.8,0.941,0.941,0,0,0-.49-0.79l-6.16-3.15a0.933,0.933,0,0,0-.86,0l-7.93,4.09-3.41-1.73,15.12-8.14,16.15,8.69v19.21Zm12.1-10.23-7.29,3.71a0.9,0.9,0,0,0-.39,1.22,0.927,0.927,0,0,0,.82.49,1.035,1.035,0,0,0,.42-0.1l7.29-3.71a0.9,0.9,0,0,0,.4-1.22A0.943,0.943,0,0,0,1063.02,1562.37Zm0-4.16-7.29,3.7a0.9,0.9,0,0,0-.39,1.22,0.927,0.927,0,0,0,.82.49,0.9,0.9,0,0,0,.42-0.1l7.29-3.71a0.9,0.9,0,0,0,.4-1.22A0.939,0.939,0,0,0,1063.02,1558.21Zm0-4.17-4.17,2.12a0.893,0.893,0,0,0-.39,1.22,0.916,0.916,0,0,0,.82.49,0.9,0.9,0,0,0,.42-0.1l4.17-2.12a0.9,0.9,0,0,0,.4-1.22A0.934,0.934,0,0,0,1063.02,1554.04Z" transform="translate(-1032 -1535.03)"/>
</svg>
