<svg xmlns="http://www.w3.org/2000/svg" width="28" height="24" viewBox="0 0 28 24">
  <defs>
    <style>
      .cls-1 {
        fill: #38a8cd;
        fill-rule: evenodd;
      }
    </style>
  </defs>
  <path id="Branches" class="cls-1" d="M9902.89,589.069h-3.8a1.875,1.875,0,0,0-1.89,1.853v2.865a1.875,1.875,0,0,0,1.89,1.853h3.8a1.875,1.875,0,0,0,1.89-1.853v-2.865A1.875,1.875,0,0,0,9902.89,589.069Zm0.52,4.718a0.517,0.517,0,0,1-.52.506h-3.8a0.514,0.514,0,0,1-.52-0.506v-2.865a0.517,0.517,0,0,1,.52-0.5h3.8a0.513,0.513,0,0,1,.52.5v2.865Zm7.59-9.925a0.641,0.641,0,0,0-.09-0.331l-4.17-7.19a0.693,0.693,0,0,0-.59-0.342h-18.31a0.68,0.68,0,0,0-.59.342l-4.16,7.19a0.641,0.641,0,0,0-.09.331,3.943,3.943,0,0,0,2.4,3.606v11.857a0.684,0.684,0,0,0,.69.675h21.81a0.684,0.684,0,0,0,.69-0.675V587.553a0.175,0.175,0,0,0-.01-0.074A3.955,3.955,0,0,0,9911,583.862Zm-22.75-6.51h17.5l3.25,5.623h-24Zm14.68,6.965a2.651,2.651,0,0,1-5.2,0h5.2Zm-6.66,0a2.651,2.651,0,0,1-5.2,0h5.2Zm-11.85,0h5.2A2.651,2.651,0,0,1,9884.42,584.317Zm10.11,14.334h-3.95v-7.273a0.973,0.973,0,0,1,.98-0.961h2a0.969,0.969,0,0,1,.98.961v7.273h-0.01Zm12.69,0h-11.31v-7.273a2.34,2.34,0,0,0-2.36-2.309h-1.99a2.335,2.335,0,0,0-2.35,2.309v7.279h-2.43V587.8c0.08,0.006.15,0.006,0.24,0.006a4.055,4.055,0,0,1,6.66,0,4.046,4.046,0,0,1,6.65,0,4.046,4.046,0,0,1,6.65,0c0.08,0,.16-0.006.24-0.006v10.852h0Zm-0.24-12.194a2.608,2.608,0,0,1-2.59-2.134h5.2A2.652,2.652,0,0,1,9906.98,586.457Z" transform="translate(-9883 -576)"/>
</svg>
