<svg width="10" height="13" viewBox="0 0 10 13" fill="none" xmlns="http://www.w3.org/2000/svg">
<path d="M8.9375 1.625H6.875V1.21875C6.875 0.545645 6.37133 0 5.75 0H4.25C3.62867 0 3.125 0.545645 3.125 1.21875V1.625H1.0625C0.544742 1.625 0.125 2.07972 0.125 2.64062V3.45312C0.125 3.6775 0.292883 3.85938 0.5 3.85938H9.5C9.70712 3.85938 9.875 3.6775 9.875 3.45312V2.64062C9.875 2.07972 9.45526 1.625 8.9375 1.625ZM3.875 1.21875C3.875 0.994805 4.04328 0.8125 4.25 0.8125H5.75C5.95672 0.8125 6.125 0.994805 6.125 1.21875V1.625H3.875V1.21875Z" fill="#8A8888"/>
<path d="M0.836665 4.67188C0.769751 4.67188 0.716431 4.73246 0.719618 4.80487L1.02899 11.8391C1.05759 12.4902 1.55118 13 2.15259 13H7.84743C8.44884 13 8.94243 12.4902 8.97103 11.8391L9.2804 4.80487C9.28359 4.73246 9.23027 4.67188 9.16335 4.67188H0.836665ZM6.50001 5.6875C6.50001 5.46305 6.66782 5.28125 6.87501 5.28125C7.0822 5.28125 7.25001 5.46305 7.25001 5.6875V10.9688C7.25001 11.1932 7.0822 11.375 6.87501 11.375C6.66782 11.375 6.50001 11.1932 6.50001 10.9688V5.6875ZM4.62501 5.6875C4.62501 5.46305 4.79282 5.28125 5.00001 5.28125C5.2072 5.28125 5.37501 5.46305 5.37501 5.6875V10.9688C5.37501 11.1932 5.2072 11.375 5.00001 11.375C4.79282 11.375 4.62501 11.1932 4.62501 10.9688V5.6875ZM2.75001 5.6875C2.75001 5.46305 2.91782 5.28125 3.12501 5.28125C3.3322 5.28125 3.50001 5.46305 3.50001 5.6875V10.9688C3.50001 11.1932 3.3322 11.375 3.12501 11.375C2.91782 11.375 2.75001 11.1932 2.75001 10.9688V5.6875Z" fill="#8A8888"/>
</svg>
