<svg width="16" height="15" viewBox="0 0 16 15" fill="none" xmlns="http://www.w3.org/2000/svg">
<path d="M11.5417 2.12499H14.375C14.5629 2.12499 14.743 2.19962 14.8759 2.33246C15.0087 2.4653 15.0833 2.64547 15.0833 2.83333V14.1667C15.0833 14.3545 15.0087 14.5347 14.8759 14.6675C14.743 14.8004 14.5629 14.875 14.375 14.875H1.62499C1.43713 14.875 1.25696 14.8004 1.12412 14.6675C0.991284 14.5347 0.916656 14.3545 0.916656 14.1667V2.83333C0.916656 2.64547 0.991284 2.4653 1.12412 2.33246C1.25696 2.19962 1.43713 2.12499 1.62499 2.12499H4.45832V0.708328H5.87499V2.12499H10.125V0.708328H11.5417V2.12499ZM13.6667 7.79166H2.33332V13.4583H13.6667V7.79166ZM10.125 3.54166H5.87499V4.95833H4.45832V3.54166H2.33332V6.375H13.6667V3.54166H11.5417V4.95833H10.125V3.54166ZM3.74999 9.20833H5.16666V10.625H3.74999V9.20833ZM7.29166 9.20833H8.70832V10.625H7.29166V9.20833ZM10.8333 9.20833H12.25V10.625H10.8333V9.20833Z" fill="#A4A4A4"/>
</svg>
