<svg xmlns="http://www.w3.org/2000/svg" width="87.03" height="87" viewBox="0 0 87.03 87">
  <defs>
    <style>
      .cls-1 {
        fill: #d2d2d2;
        fill-rule: evenodd;
      }
    </style>
  </defs>
  <path id="cash" class="cls-1" d="M1068.18,1994.61a1.812,1.812,0,0,0-1.07,2.32l1.13,3.13,8.67-8.67Zm8.21,27.84,5.22,14.36a1.779,1.779,0,0,0,.94,1.02,1.831,1.831,0,0,0,.76.17,1.99,1.99,0,0,0,.63-0.11l5.76-2.13Zm77.5-12.26-5.98-16.42-14.33,14.34,7.1-2.62a1.813,1.813,0,1,1,1.26,3.4l-9.03,3.33a1.99,1.99,0,0,1-.63.11,1.813,1.813,0,0,1-1.7-1.19v-0.03l-15.19,15.19,37.42-13.79A1.809,1.809,0,0,0,1153.89,2010.19Zm-0.42-29.66-29-29a1.8,1.8,0,0,0-2.56,0l-54.38,54.37a1.817,1.817,0,0,0,0,2.57l29,29a1.811,1.811,0,0,0,2.56,0l54.38-54.38A1.823,1.823,0,0,0,1153.47,1980.53Zm-65.25,20.69-7.25,7.25a1.823,1.823,0,0,1-2.57,0,1.8,1.8,0,0,1,0-2.56l7.25-7.25A1.814,1.814,0,0,1,1088.22,2001.22Zm31.3,2.3a6.859,6.859,0,0,1-4.97,1.9c-3.2,0-6.95-1.68-10.08-4.81a16.563,16.563,0,0,1-4.52-7.72c-0.7-2.99-.13-5.59,1.61-7.33s4.34-2.31,7.33-1.61a16.611,16.611,0,0,1,7.72,4.52C1121.64,1993.5,1122.92,2000.12,1119.52,2003.52Zm23.07-20.43-7.25,7.25a1.811,1.811,0,0,1-2.56,0,1.8,1.8,0,0,1,0-2.56l7.25-7.25A1.81,1.81,0,0,1,1142.59,1983.09Z" transform="translate(-1067 -1951)"/>
</svg>
