<svg xmlns="http://www.w3.org/2000/svg" width="71.18" height="68.62" viewBox="0 0 71.18 68.62">
  <defs>
    <style>
      .cls-1 {
        fill: #d2d2d2;
        fill-rule: evenodd;
      }
    </style>
  </defs>
  <path id="certificate" class="cls-1" d="M1126.17,2194.48a12.71,12.71,0,1,1,12.71-12.71A12.584,12.584,0,0,1,1126.17,2194.48Zm22.88-48.31h-66.1a2.409,2.409,0,0,0-2.55,2.55v50.85a2.4,2.4,0,0,0,2.55,2.54h27.96v-11.19a19.043,19.043,0,0,1-2.54-9.15,17.8,17.8,0,1,1,35.6,0,19.043,19.043,0,0,1-2.54,9.15v11.19h7.62a2.4,2.4,0,0,0,2.55-2.54v-50.85A2.409,2.409,0,0,0,1149.05,2146.17Zm-48.31,27.97h-10.17a2.54,2.54,0,0,1,0-5.08h10.17A2.54,2.54,0,1,1,1100.74,2174.14Zm7.63-10.17h-17.8a2.54,2.54,0,0,1,0-5.08h17.8A2.54,2.54,0,1,1,1108.37,2163.97Zm17.8,35.6a17.341,17.341,0,0,1-10.17-3.31v16.02a3.136,3.136,0,0,0,1.02,2.04,2.45,2.45,0,0,0,2.29.25l6.86-2.29,6.87,2.29c0.25,0,.5.26,0.76,0.26a3.609,3.609,0,0,0,1.52-.51,2.3,2.3,0,0,0,1.02-2.04v-16.02A17.341,17.341,0,0,1,1126.17,2199.57Z" transform="translate(-1080.41 -2146.19)"/>
</svg>
