<svg xmlns="http://www.w3.org/2000/svg" width="23.03" height="21" viewBox="0 0 23.03 21">
  <defs>
    <style>
      .cls-1 {
        fill: #a9a9a9;
        fill-rule: evenodd;
      }
    </style>
  </defs>
  <path id="Dashboard" class="cls-1" d="M1883.62,179h-20.23a1.416,1.416,0,0,0-1.4,1.422v14.75a1.416,1.416,0,0,0,1.4,1.421h20.23a1.416,1.416,0,0,0,1.4-1.421v-14.75A1.416,1.416,0,0,0,1883.62,179Zm-0.36,15.126h-19.51V181h19.51v13.132ZM1878.78,200h-10.52l2.65-2.727h5.23Zm-6.36-14.9a0.952,0.952,0,1,1-.94.951A0.945,0.945,0,0,1,1872.42,185.1Zm3.78,3.072a0.952,0.952,0,1,1-.94.951A0.945,0.945,0,0,1,1876.2,188.171Zm3.74-3.317a0.952,0.952,0,1,1-.93.952A0.945,0.945,0,0,1,1879.94,184.854Zm-13.21,4.74a0.951,0.951,0,1,1-.94.951A0.943,0.943,0,0,1,1866.73,189.594Zm9.42-.755c-0.38-.33-3.69-3.182-3.69-3.182l-6.03,4.756,0.32,0.573s5.28-4.343,5.63-4.539l3.78,3.261,4-3.66-0.43-.485S1876.53,188.5,1876.15,188.839Z" transform="translate(-1862 -179)"/>
</svg>
