<svg xmlns="http://www.w3.org/2000/svg" width="16" height="23" viewBox="0 0 16 23">
  <defs>
    <style>
      .cls-1 {
        fill: #f36;
        fill-rule: evenodd;
      }
    </style>
  </defs>
  <path id="Forma_1_copy_17" data-name="Forma 1 copy 17" class="cls-1" d="M62.217,702.437a2.022,2.022,0,0,0,2,1.562h7.563a2.02,2.02,0,0,0,2-1.562l1.493-15.305H60.724Zm8.689-13a0.728,0.728,0,1,1,1.454,0l-0.727,11.5a0.729,0.729,0,1,1-1.455,0Zm-3.636,0a0.728,0.728,0,1,1,1.455,0v11.5a0.728,0.728,0,1,1-1.455,0v-11.5h0Zm-2.908-.767a0.747,0.747,0,0,1,.725.767l0.728,11.5a0.728,0.728,0,1,1-1.453,0l-0.728-11.5A0.748,0.748,0,0,1,64.362,688.665Zm10.47-4.6h-3.2v-1.536c0-1.163-.357-1.533-1.455-1.533H65.815a1.307,1.307,0,0,0-1.453,1.533v1.536h-3.2a1.15,1.15,0,1,0,0,2.3H74.832A1.15,1.15,0,1,0,74.832,684.067Zm-4.654,0H65.815v-1.536h4.363v1.536h0Z" transform="translate(-60 -681)"/>
</svg>
