<svg width="46" height="19" viewBox="0 0 46 19" fill="none" xmlns="http://www.w3.org/2000/svg">
<g clip-path="url(#clip0)">
<path d="M1.07596 8.05085L4.66251 6.44068C5.33997 6.11864 5.97758 5.63559 6.45579 5.03178L9.92279 0.684322C10.2416 0.241525 10.7596 0 11.3176 0H30.1669C30.5654 0 30.924 0.120763 31.2428 0.362288C31.6015 0.644068 31.8804 1.04661 31.9601 1.48941C31.9601 1.52966 31.9601 1.52966 31.9601 1.56992C32 1.65042 32 1.73093 32 1.85169V2.97881V3.05932V4.42797V4.54873V5.87712V5.99788V7.24576V7.40678V8.69491V14.1292C32 15.1356 31.203 15.9809 30.1669 15.9809H29.5691C29.5691 15.8199 29.5691 15.6992 29.5293 15.5381C29.2902 13.6864 27.736 12.2373 25.863 12.2373C23.99 12.2373 22.396 13.6864 22.1968 15.5381C22.1968 15.6992 22.1569 15.8199 22.1569 15.9809H10.122C10.122 15.8199 10.122 15.6992 10.0822 15.5381C9.84309 13.6864 8.28891 12.2373 6.41594 12.2373C4.54296 12.2373 2.94894 13.6864 2.74968 15.5381C2.74968 15.6992 2.70983 15.8199 2.70983 15.9809H1.79327C0.797006 15.9809 -0.0398555 15.1758 -0.0398555 14.1292V9.74153C-4.93776e-06 9.01695 0.398502 8.37288 1.07596 8.05085ZM7.89041 6.40042H14.3063C14.5455 6.40042 14.7049 6.19915 14.7049 5.99788V2.21398C14.7049 1.97246 14.5056 1.81144 14.3063 1.81144H11.0386C10.9191 1.81144 10.7995 1.85169 10.7198 1.97246L7.5716 5.75636C7.3325 5.99788 7.53175 6.40042 7.89041 6.40042Z" fill="#FA4616"/>
<path d="M25.863 12.9214C27.3773 12.9214 28.6126 14.0485 28.8518 15.4977C28.8916 15.6587 28.8916 15.7794 28.8916 15.9405C28.8916 16.1015 28.8916 16.2625 28.8518 16.3833C28.6525 17.8324 27.3773 18.9595 25.863 18.9595C24.3486 18.9595 23.1133 17.8324 22.8742 16.3833C22.8343 16.2222 22.8343 16.1015 22.8343 15.9405C22.8343 15.7794 22.8343 15.6184 22.8742 15.4977C23.1133 14.0485 24.3486 12.9214 25.863 12.9214ZM24.5479 16.4235C24.7471 16.9871 25.2652 17.3896 25.863 17.3896C26.4607 17.3896 27.0186 16.9871 27.178 16.4235C27.2179 16.2625 27.2577 16.1417 27.2577 15.9807C27.2577 15.8197 27.2179 15.6587 27.178 15.5379C26.9788 14.9744 26.4607 14.5718 25.863 14.5718C25.2253 14.5718 24.7073 14.9744 24.5479 15.5379C24.508 15.6989 24.4682 15.8197 24.4682 15.9807C24.4682 16.1417 24.508 16.3027 24.5479 16.4235Z" fill="#FA4616"/>
<path d="M6.45573 12.9214C7.97005 12.9214 9.20542 14.0485 9.44453 15.4977C9.48438 15.6587 9.48438 15.7794 9.48438 15.9405C9.48438 16.1015 9.48438 16.2625 9.44453 16.3833C9.24527 17.8324 7.97005 18.9595 6.45573 18.9595C4.94141 18.9595 3.70604 17.8324 3.46694 16.3833C3.42709 16.2222 3.42709 16.1015 3.42709 15.9405C3.42709 15.7794 3.42709 15.6184 3.46694 15.4977C3.70604 14.0485 4.94141 12.9214 6.45573 12.9214ZM5.10081 16.4235C5.30007 16.9871 5.81812 17.3896 6.41588 17.3896C7.01364 17.3896 7.57155 16.9871 7.73095 16.4235C7.7708 16.2625 7.81065 16.1417 7.81065 15.9807C7.81065 15.8197 7.7708 15.6587 7.73095 15.5379C7.5317 14.9744 7.01364 14.5718 6.41588 14.5718C5.77827 14.5718 5.26022 14.9744 5.10081 15.5379C5.06096 15.6989 5.02111 15.8197 5.02111 15.9807C5.02111 16.1417 5.06096 16.3027 5.10081 16.4235Z" fill="#FA4616"/>
</g>
<rect width="12" height="2" rx="1" transform="matrix(-1 0 0 1 46 2)" fill="#FA4616"/>
<rect width="9" height="2" rx="1" transform="matrix(-1 0 0 1 43 5)" fill="#FA4616"/>
<rect width="6" height="2" rx="1" transform="matrix(-1 0 0 1 40 8)" fill="#FA4616"/>
<defs>
<clipPath id="clip0">
<rect width="32" height="19" fill="white" transform="matrix(-1 0 0 1 32 0)"/>
</clipPath>
</defs>
</svg>
