<svg width="24" height="17" viewBox="0 0 24 17" fill="none" xmlns="http://www.w3.org/2000/svg">
<path d="M17.3895 9.47494C16.999 9.86546 16.999 10.4986 17.3895 10.8892C17.7801 11.2797 18.4132 11.2797 18.8038 10.8892L17.3895 9.47494ZM22.375 5.90369L23.0821 6.6108L23.7892 5.90369L23.0821 5.19659L22.375 5.90369ZM18.8038 0.918237C18.4132 0.527712 17.7801 0.527712 17.3895 0.918237C16.999 1.30876 16.999 1.94193 17.3895 2.33245L18.8038 0.918237ZM11 12.7491C11 13.3013 11.4477 13.7491 12 13.7491C12.5523 13.7491 13 13.3013 13 12.7491L11 12.7491ZM18.8038 10.8892L23.0821 6.6108L21.6679 5.19659L17.3895 9.47494L18.8038 10.8892ZM23.0821 5.19659L18.8038 0.918237L17.3895 2.33245L21.6679 6.6108L23.0821 5.19659ZM22.375 4.90369L18 4.90369L18 6.90369L22.375 6.90369L22.375 4.90369ZM11 11.9037L11 12.7491L13 12.7491L13 11.9037L11 11.9037ZM18 4.90369C14.134 4.90369 11 8.0377 11 11.9037L13 11.9037C13 9.14227 15.2386 6.90369 18 6.90369L18 4.90369Z" fill="white"/>
<path d="M6.61046 9.47493C7.00098 9.86546 7.00098 10.4986 6.61046 10.8891C6.21994 11.2797 5.58677 11.2797 5.19625 10.8891L6.61046 9.47493ZM1.625 5.90369L0.917895 6.6108L0.210788 5.90369L0.917895 5.19658L1.625 5.90369ZM5.19625 0.918234C5.58677 0.527709 6.21993 0.527709 6.61046 0.918233C7.00098 1.30876 7.00098 1.94192 6.61046 2.33245L5.19625 0.918234ZM12 11.9037L11 11.9037L11 11.9037L12 11.9037ZM13 15.3747C13 15.927 12.5523 16.3747 12 16.3747C11.4477 16.3747 11 15.927 11 15.3747L13 15.3747ZM5.19625 10.8891L0.917895 6.6108L2.33211 5.19658L6.61046 9.47493L5.19625 10.8891ZM0.917895 5.19658L5.19625 0.918234L6.61046 2.33245L2.33211 6.6108L0.917895 5.19658ZM1.625 4.90369L6 4.90369L6 6.90369L1.625 6.90369L1.625 4.90369ZM13 11.9037L13 15.3747L11 15.3747L11 11.9037L13 11.9037ZM6 4.90369C9.86599 4.90369 13 8.0377 13 11.9037L11 11.9037C11 9.14227 8.76142 6.90369 6 6.90369L6 4.90369Z" fill="white"/>
</svg>
