<svg xmlns="http://www.w3.org/2000/svg" width="18.5" height="17.531" viewBox="0 0 18.5 17.531">
  <defs>
    <style>
      .cls-1 {
        fill: #a9a9a9;
        fill-rule: evenodd;
      }
    </style>
  </defs>
  <path id="Drivers" class="cls-1" d="M1880.32,801.339a15.464,15.464,0,0,0-4.52-1.726l0.14-.187a0.331,0.331,0,0,0,.05-0.256l-0.29-1.144a6.551,6.551,0,0,0,1.22-3.709v-1.9s0,0,.01,0a1.742,1.742,0,0,0,.53-0.795l-0.32-.086-1.62-.284a19.569,19.569,0,0,0-7.06,0l-1.65.29-0.29.073a1.763,1.763,0,0,0,.53.8l0.01,0v1.9a6.551,6.551,0,0,0,1.22,3.709l-0.29,1.144a0.331,0.331,0,0,0,.05.256l0.14,0.187a15.464,15.464,0,0,0-4.52,1.726,1.7,1.7,0,0,0-.92,1.516v1.317a0.31,0.31,0,0,0,.31.308h17.88a0.31,0.31,0,0,0,.31-0.308v-1.317A1.7,1.7,0,0,0,1880.32,801.339Zm-9.63.681-2.07-2.841,0.14-.552a0.042,0.042,0,0,1,.01,0,4.518,4.518,0,0,0,2.76,1.508h0Zm-1.2-3.544a3.026,3.026,0,0,1-.23-0.222s0,0-.01,0a4.8,4.8,0,0,1-.32-0.383c-0.01-.012-0.03-0.019-0.04-0.029a5.7,5.7,0,0,1-1.22-3.523v-1.57l0.03,0c0.03,0.008.05,0.014,0.08,0.02s0.07,0.016.1,0.021,0.06,0.007.1,0.011,0.06,0.008.09,0.009,0.08,0,.12,0h0.07a1.7,1.7,0,0,0,.2-0.023,19.569,19.569,0,0,1,7.06,0,2.011,2.011,0,0,0,.28.024,0.08,0.08,0,0,0,.02,0l0.03,0a1.722,1.722,0,0,0,.46-0.066v1.57a5.7,5.7,0,0,1-1.22,3.523c-0.01.01-.03,0.017-0.04,0.029a4.617,4.617,0,0,1-.32.382c-0.01,0-.01,0-0.01,0a2.834,2.834,0,0,1-.23.221A3.441,3.441,0,0,1,1869.49,798.476Zm3.8,3.544-0.84-1.881h0a4.518,4.518,0,0,0,2.76-1.508,0.042,0.042,0,0,1,.01,0l0.13,0.552Zm-4.94-11.377a20.194,20.194,0,0,1,7.28,0l1.65,0.289,0.25,0.07a4.175,4.175,0,0,0-4.17-4.077h-2.74a4.172,4.172,0,0,0-4.17,4.071l0.23-.059Zm2.71-2.486a0.31,0.31,0,0,1,.31-0.308h1.24a0.3,0.3,0,0,1,.3.308v1.54a0.3,0.3,0,0,1-.3.308h-1.24a0.31,0.31,0,0,1-.31-0.308v-1.54h0Zm0.62,0.308h0.62v0.924h-0.62v-0.924Z" transform="translate(-1862.75 -786.938)"/>
</svg>
