<svg xmlns="http://www.w3.org/2000/svg" width="17.781" height="17.781" viewBox="0 0 17.781 17.781">
  <defs>
    <style>
      .cls-1 {
        fill: #f36;
        fill-rule: evenodd;
      }
    </style>
  </defs>
  <path id="EDIT" class="cls-1" d="M108.524,694.031a0.635,0.635,0,0,0-.635.635v6.35a0.635,0.635,0,0,1-.635.635H95.832a0.635,0.635,0,0,1-.635-0.635v-12.7a0.635,0.635,0,0,1,.635-0.635h7.615a0.635,0.635,0,0,0,0-1.27H95.832a1.9,1.9,0,0,0-1.9,1.905v12.7a1.9,1.9,0,0,0,1.9,1.906h11.422a1.9,1.9,0,0,0,1.9-1.906v-6.35A0.634,0.634,0,0,0,108.524,694.031Zm2.461-8.178a2.425,2.425,0,0,0-3.435,0l-8.359,8.364a0.645,0.645,0,0,0-.153.248l-1.269,3.811a0.635,0.635,0,0,0,.4.8,0.643,0.643,0,0,0,.4,0l3.807-1.27a0.622,0.622,0,0,0,.248-0.154l8.359-8.365A2.431,2.431,0,0,0,110.985,685.853Z" transform="translate(-93.938 -685.125)"/>
</svg>
