<svg xmlns="http://www.w3.org/2000/svg" width="10" height="10" viewBox="0 0 10 10">
  <defs>
    <style>
      .cls-1 {
        fill: #f36;
        fill-rule: evenodd;
      }
    </style>
  </defs>
  <path id="Export" class="cls-1" d="M339.908,824.092a0.316,0.316,0,0,0-.25-0.091l-2.431.221a0.313,0.313,0,0,0-.193.533l0.663,0.663-3.314,3.314a0.311,0.311,0,0,0,0,.441l0.442,0.442a0.313,0.313,0,0,0,.443,0l3.313-3.314,0.664,0.663a0.316,0.316,0,0,0,.327.073,0.337,0.337,0,0,0,.115-0.073,0.32,0.32,0,0,0,.09-0.193L340,824.341A0.317,0.317,0,0,0,339.908,824.092Zm-1.159,3.658v5h-7.5v-7.5h5V824h-5.625a0.625,0.625,0,0,0-.625.625v8.75a0.625,0.625,0,0,0,.625.624h8.75a0.625,0.625,0,0,0,.625-0.624V827.75h-1.25Z" transform="translate(-330 -824)"/>
</svg>
