<svg width="14" height="16" viewBox="0 0 14 16" fill="none" xmlns="http://www.w3.org/2000/svg">
<path d="M7.78464 8.35417H10.0618L7.02559 11.3958L3.98942 8.35417H6.26655V5.3125H7.78464V8.35417ZM9.30272 2.27083H1.7123V14.4375H12.3389V5.3125H9.30272V2.27083ZM0.194214 1.50433C0.194214 1.08763 0.533506 0.75 0.952497 0.75H10.0618L13.857 4.55209V15.1926C13.8577 15.2925 13.8387 15.3915 13.8012 15.484C13.7637 15.5765 13.7084 15.6608 13.6384 15.7319C13.5684 15.803 13.4851 15.8596 13.3933 15.8984C13.3015 15.9373 13.2029 15.9576 13.1032 15.9583H0.947943C0.748602 15.957 0.557808 15.8771 0.416778 15.7359C0.275749 15.5948 0.195804 15.4037 0.194214 15.204V1.50433Z" fill="white"/>
</svg>
