<svg xmlns="http://www.w3.org/2000/svg" width="21" height="21" viewBox="0 0 21 21">
  <defs>
    <style>
      .cls-1 {
        fill: #fff;
        fill-rule: evenodd;
      }
    </style>
  </defs>
  <path id="Map" class="cls-1" d="M436.406,22a4.6,4.6,0,0,0-4.594,4.594c0,2.357,3.686,6.532,4.106,7a0.656,0.656,0,0,0,.976,0c0.42-.469,4.106-4.644,4.106-7A4.6,4.6,0,0,0,436.406,22Zm0,6.563a1.969,1.969,0,1,1,1.969-1.969A1.97,1.97,0,0,1,436.406,28.563ZM420.412,29.71a0.658,0.658,0,0,0-.412.61V42.344a0.656,0.656,0,0,0,.9.609l5.662-2.265V27.25Zm17.459,4.762a1.969,1.969,0,0,1-2.93,0c-0.134-.148-0.3-0.344-0.5-0.576V43l6.151-2.459A0.655,0.655,0,0,0,441,39.931V30.283A28.52,28.52,0,0,1,437.871,34.471Zm-6.958-6.006-3.038-1.215V40.687l5.25,2.1V32.248A17.1,17.1,0,0,1,430.913,28.465Z" transform="translate(-420 -22)"/>
</svg>
