<svg width="42" height="70" viewBox="0 0 42 70" fill="none" xmlns="http://www.w3.org/2000/svg">
<path d="M24.65 1.75H17.6L17.4884 1.75C14.2597 1.74996 11.6841 1.74994 9.66436 2.02149C7.57822 2.30196 5.86184 2.89664 4.50424 4.25424C3.14664 5.61184 2.55196 7.32822 2.27149 9.41436C1.99994 11.4341 1.99996 14.0097 2 17.2384L2 17.35V52.6L2 52.7116C1.99996 55.9403 1.99994 58.5159 2.27149 60.5356C2.55196 62.6218 3.14664 64.3382 4.50424 65.6958C5.86184 67.0534 7.57822 67.648 9.66436 67.9285C11.6842 68.2001 14.2598 68.2 17.4886 68.2H17.6H24.65H24.7614C27.9902 68.2 30.5658 68.2001 32.5856 67.9285C34.6718 67.648 36.3882 67.0534 37.7458 65.6958C39.1034 64.3382 39.698 62.6218 39.9785 60.5356C40.2501 58.5159 40.25 55.9403 40.25 52.7116V52.6V17.35V17.2384C40.25 14.0097 40.2501 11.4341 39.9785 9.41436C39.698 7.32822 39.1034 5.61184 37.7458 4.25424C36.3882 2.89664 34.6718 2.30196 32.5856 2.02149C30.5659 1.74994 27.9903 1.74996 24.7616 1.75L24.65 1.75Z" stroke="black" stroke-width="3"/>
<path d="M3.5 49.075H38.75" stroke="black" stroke-width="3"/>
<circle cx="21.125" cy="58" r="2" fill="black"/>
<line x1="13.25" y1="11" x2="29" y2="11" stroke="black" stroke-width="2" stroke-linecap="round"/>
</svg>
