<svg xmlns="http://www.w3.org/2000/svg" width="16.84" height="18.938" viewBox="0 0 16.84 18.938">
  <defs>
    <style>
      .cls-1 {
        fill: #a9a9a9;
        fill-rule: evenodd;
      }
    </style>
  </defs>
  <path class="cls-1" d="M1876.66,744.015a4.108,4.108,0,0,1-3.33,1.7h-1.92a1.532,1.532,0,0,1-1.44-1.011,5.362,5.362,0,0,1-.78-0.307,5.137,5.137,0,0,1-1.44-1.073,6.181,6.181,0,0,0-4.85,6.042v0.387a0.961,0.961,0,0,0,.96.962h14.92a0.961,0.961,0,0,0,.96-0.962v-0.387A6.188,6.188,0,0,0,1876.66,744.015Zm-9.94-2.673a1.08,1.08,0,0,0,.96-0.567c0.01,0.013.01,0.026,0.02,0.04v0.012a4.288,4.288,0,0,0,2.41,2.539,1.53,1.53,0,0,1,1.3-.718h1.92a1.1,1.1,0,0,0,.53-0.142,2.3,2.3,0,0,0,.62-0.717,6.323,6.323,0,0,0,.48-1.015,0.966,0.966,0,0,0,.3.349v0.471a1.935,1.935,0,0,1-1.93,1.931h-1.92a0.658,0.658,0,1,0,0,1.315h1.92a3.244,3.244,0,0,0,3.24-3.246v-0.471a1.085,1.085,0,0,0,.44-0.877V737.5a1.105,1.105,0,0,0-.45-0.889,5.257,5.257,0,0,0-10.48,0,1.105,1.105,0,0,0-.45.889v2.743A1.093,1.093,0,0,0,1866.72,741.342Zm4.6-8.253a3.949,3.949,0,0,1,3.92,3.552,1.07,1.07,0,0,0-.31.381,3.747,3.747,0,0,0-7.22-.007v0.007a1.07,1.07,0,0,0-.31-0.381A3.949,3.949,0,0,1,1871.32,733.089Z" transform="translate(-1862.91 -731.781)"/>
</svg>
