<svg xmlns="http://www.w3.org/2000/svg" width="22" height="14" viewBox="0 0 22 14">
  <defs>
    <style>
      .cls-1 {
        fill: #a9a9a9;
        fill-rule: evenodd;
      }
    </style>
  </defs>
  <path class="cls-1" d="M1877,851a3,3,0,1,0-3-3A2.987,2.987,0,0,0,1877,851Zm-8,0a3,3,0,1,0-3-3A2.987,2.987,0,0,0,1869,851Zm0,2c-2.33,0-7,1.17-7,3.5V859h14v-2.5C1876,854.17,1871.33,853,1869,853Zm8,0c-0.29,0-.62.02-0.97,0.05a4.22,4.22,0,0,1,1.97,3.45V859h6v-2.5C1884,854.17,1879.33,853,1877,853Z" transform="translate(-1862 -845)"/>
</svg>
