<svg xmlns="http://www.w3.org/2000/svg" width="20" height="23" viewBox="0 0 20 23">
  <defs>
    <style>
      .cls-1 {
        fill: #38a8cd;
        fill-rule: evenodd;
      }
    </style>
  </defs>
  <path id="polygons" class="cls-1" d="M10264.8,586.2c2.4-3.841,2.1-3.362,2.2-3.462a7.238,7.238,0,0,0,1.3-4.278,7.3,7.3,0,1,0-14.6,0,6.88,6.88,0,0,0,1.4,4.333l2.1,3.407c-2.3.356-6.2,1.419-6.2,3.76,0,0.854.6,2.069,3.2,3.017A20.4,20.4,0,0,0,10261,594c4.8,0,10-1.369,10-4.043C10271,587.615,10267.1,586.553,10264.8,586.2Zm-8.7-4.182a6.486,6.486,0,0,1-1.1-3.558,6,6,0,1,1,12,0,6.191,6.191,0,0,1-1.1,3.489c-0.1.086,0.3-.441-4.9,7.768l-4.8-7.666C10256.2,582.036,10256.2,582.025,10256.1,582.014Zm4.9,10.638c-5.2,0-8.7-1.559-8.7-2.7,0-.764,1.8-2.021,5.7-2.511l2.4,3.884a0.733,0.733,0,0,0,1.2,0l2.4-3.884c3.9,0.49,5.7,1.747,5.7,2.511C10269.7,591.084,10266.3,592.652,10261,592.652Zm3.3-14.2a3.3,3.3,0,1,0-3.3,3.369A3.352,3.352,0,0,0,10264.3,578.456Zm-5.3,0a2,2,0,1,1,2,2.022A2.015,2.015,0,0,1,10259,578.456Z" transform="translate(-10251 -571)"/>
</svg>
