<svg width="16" height="16" viewBox="0 0 16 16" fill="none" xmlns="http://www.w3.org/2000/svg">
<path d="M3.6249 13.6458H1.3124C1.10796 13.6458 0.911896 13.5646 0.767337 13.4201C0.622777 13.2755 0.541565 13.0794 0.541565 12.875V5.16667C0.541565 4.96223 0.622777 4.76617 0.767337 4.62161C0.911896 4.47705 1.10796 4.39584 1.3124 4.39584H3.6249V1.31251C3.6249 1.10807 3.70611 0.912003 3.85067 0.767444C3.99523 0.622884 4.19129 0.541672 4.39573 0.541672H12.1041C12.3085 0.541672 12.5046 0.622884 12.6491 0.767444C12.7937 0.912003 12.8749 1.10807 12.8749 1.31251V4.39584H15.1874C15.3918 4.39584 15.5879 4.47705 15.7325 4.62161C15.877 4.76617 15.9582 4.96223 15.9582 5.16667V12.875C15.9582 13.0794 15.877 13.2755 15.7325 13.4201C15.5879 13.5646 15.3918 13.6458 15.1874 13.6458H12.8749V15.1875C12.8749 15.3919 12.7937 15.588 12.6491 15.7326C12.5046 15.8771 12.3085 15.9583 12.1041 15.9583H4.39573C4.19129 15.9583 3.99523 15.8771 3.85067 15.7326C3.70611 15.588 3.6249 15.3919 3.6249 15.1875V13.6458ZM3.6249 12.1042V11.3333C3.6249 11.1289 3.70611 10.9328 3.85067 10.7883C3.99523 10.6437 4.19129 10.5625 4.39573 10.5625H12.1041C12.3085 10.5625 12.5046 10.6437 12.6491 10.7883C12.7937 10.9328 12.8749 11.1289 12.8749 11.3333V12.1042H14.4166V5.93751H2.08323V12.1042H3.6249ZM5.16656 2.08334V4.39584H11.3332V2.08334H5.16656ZM5.16656 12.1042V14.4167H11.3332V12.1042H5.16656ZM2.85406 6.70834H5.16656V8.25001H2.85406V6.70834Z" fill="white"/>
</svg>
