<svg xmlns="http://www.w3.org/2000/svg" width="24" height="24" viewBox="0 0 24 24">
  <defs>
    <style>
      .cls-1 {
        fill: #38a8cd;
        fill-rule: evenodd;
      }
    </style>
  </defs>
  <path id="Rules" class="cls-1" d="M10271.4,686.39h-1.9a8.847,8.847,0,0,0-.7-1.543l1.4-1.38a1.477,1.477,0,0,0,0-2.215l-1.5-1.476a1.585,1.585,0,0,0-2.2,0l-1.3,1.38a11.112,11.112,0,0,0-1.6-.639v-1.952A1.574,1.574,0,0,0,10262,677h-2a1.574,1.574,0,0,0-1.6,1.566v1.953a11.105,11.105,0,0,0-1.6.638l-1.3-1.38a1.551,1.551,0,0,0-2.2,0l-1.5,1.477a1.587,1.587,0,0,0,0,2.214l1.4,1.38a8.856,8.856,0,0,0-.7,1.544h-1.9a1.573,1.573,0,0,0-1.6,1.565v2.087a1.574,1.574,0,0,0,1.6,1.565h1.9a8.847,8.847,0,0,0,.7,1.543l-1.4,1.381a1.587,1.587,0,0,0,0,2.214l1.5,1.477a1.553,1.553,0,0,0,2.2,0l1.3-1.38a11.105,11.105,0,0,0,1.6.638v1.953A1.574,1.574,0,0,0,10260,701h2a1.574,1.574,0,0,0,1.6-1.565v-1.953a11.229,11.229,0,0,0,1.6-.639l1.3,1.381a1.586,1.586,0,0,0,2.2,0l1.5-1.477a1.475,1.475,0,0,0,0-2.214l-1.4-1.381a8.813,8.813,0,0,0,.7-1.543h1.9a1.574,1.574,0,0,0,1.6-1.566v-2.087A1.574,1.574,0,0,0,10271.4,686.39Zm0.6,3.652a0.586,0.586,0,0,1-.6.522h-2.3a0.432,0.432,0,0,0-.5.392,7.571,7.571,0,0,1-.9,2.02,0.714,0.714,0,0,0,.1.634l1.7,1.659a0.733,0.733,0,0,1,0,.739l-1.5,1.477a0.49,0.49,0,0,1-.7,0l-1.7-1.659a0.48,0.48,0,0,0-.6-0.081,9.208,9.208,0,0,1-2,.837,0.463,0.463,0,0,0-.4.5v2.348a0.587,0.587,0,0,1-.6.522h-2a0.587,0.587,0,0,1-.6-0.522v-2.348a0.464,0.464,0,0,0-.4-0.5,9.2,9.2,0,0,1-2-.836,1.094,1.094,0,0,0-.2-0.073,0.49,0.49,0,0,0-.4.153l-1.7,1.659a0.477,0.477,0,0,1-.7,0l-1.5-1.477a0.529,0.529,0,0,1,0-.738l1.7-1.659a0.714,0.714,0,0,0,.1-0.634,7.557,7.557,0,0,1-.9-2.02,0.5,0.5,0,0,0-.5-0.392h-2.3a0.586,0.586,0,0,1-.6-0.522v-2.087a0.586,0.586,0,0,1,.6-0.521h2.3a0.5,0.5,0,0,0,.5-0.391,7.563,7.563,0,0,1,.9-2.021,0.714,0.714,0,0,0-.1-0.634l-1.7-1.659a0.53,0.53,0,0,1,0-.739l1.5-1.476a0.478,0.478,0,0,1,.7,0l1.7,1.659a0.479,0.479,0,0,0,.6.08,9.154,9.154,0,0,1,2-.836,0.464,0.464,0,0,0,.4-0.5v-2.347a0.587,0.587,0,0,1,.6-0.523h2a0.587,0.587,0,0,1,.6.523v2.347a0.464,0.464,0,0,0,.4.5,9.154,9.154,0,0,1,2,.836,0.478,0.478,0,0,0,.6-0.08l1.7-1.659a0.488,0.488,0,0,1,.7,0l1.5,1.476a0.733,0.733,0,0,1,0,.739l-1.7,1.659a0.714,0.714,0,0,0-.1.634,7.563,7.563,0,0,1,.9,2.021,0.433,0.433,0,0,0,.5.391h2.3a0.586,0.586,0,0,1,.6.521v2.087Zm-11-5.087a4.7,4.7,0,1,0,4.7,4.7A4.7,4.7,0,0,0,10261,684.955Zm0,8.348a3.652,3.652,0,1,1,3.7-3.652A3.706,3.706,0,0,1,10261,693.3Z" transform="translate(-10249 -677)"/>
</svg>
