<svg xmlns="http://www.w3.org/2000/svg" width="19.22" height="19.219" viewBox="0 0 19.22 19.219">
  <defs>
    <style>
      .cls-1 {
        fill: #a9a9a9;
        fill-rule: evenodd;
      }
    </style>
  </defs>
  <path id="Setting" class="cls-1" d="M1880.18,926.3l-1.51-.192a8.087,8.087,0,0,0-.45-1.1l0.93-1.2a1.2,1.2,0,0,0-.1-1.586l-1.26-1.262a1.193,1.193,0,0,0-1.59-.1l-1.2.93a7.713,7.713,0,0,0-1.1-.456l-0.19-1.5a1.212,1.212,0,0,0-1.2-1.058h-1.79a1.2,1.2,0,0,0-1.19,1.056l-0.19,1.506a7.72,7.72,0,0,0-1.11.456l-1.19-.93a1.2,1.2,0,0,0-1.59.1l-1.26,1.262a1.185,1.185,0,0,0-.1,1.592l0.93,1.2a8.127,8.127,0,0,0-.46,1.1l-1.5.192a1.2,1.2,0,0,0-1.06,1.19v1.8a1.2,1.2,0,0,0,1.06,1.19l1.5,0.192a8.127,8.127,0,0,0,.46,1.1l-0.93,1.2a1.177,1.177,0,0,0,.1,1.586l1.26,1.262a1.193,1.193,0,0,0,1.59.1l1.2-.93a6.966,6.966,0,0,0,1.1.456l0.19,1.5a1.2,1.2,0,0,0,1.19,1.06h1.79a1.212,1.212,0,0,0,1.2-1.055l0.19-1.507a7.6,7.6,0,0,0,1.1-.456l1.2,0.93a1.183,1.183,0,0,0,1.58-.1l1.26-1.263a1.2,1.2,0,0,0,.11-1.591l-0.93-1.2a6.984,6.984,0,0,0,.45-1.1l1.51-.192a1.2,1.2,0,0,0,1.05-1.19v-1.8a1.2,1.2,0,0,0-1.05-1.19h0Zm-8.56,6.1a4.007,4.007,0,1,1,4-4.007,4.014,4.014,0,0,1-4,4.007h0Z" transform="translate(-1862 -918.781)"/>
</svg>
