<svg xmlns="http://www.w3.org/2000/svg" width="19.56" height="23.376" viewBox="0 0 19.56 23.376">
  <defs>
    <style>
      .cls-1 {
        fill: #38a8cd;
        fill-rule: evenodd;
      }
    </style>
  </defs>
  <path id="sms" class="cls-1" d="M9536.24,577.518h-4.73v-1.641a2.091,2.091,0,0,0-2.13-2.052h-7.04a2.091,2.091,0,0,0-2.13,2.052v6.43a2.091,2.091,0,0,0,2.13,2.052h5.44v9.395a3.487,3.487,0,0,0,3.54,3.42h4.92a3.489,3.489,0,0,0,3.55-3.42V580.939A3.49,3.49,0,0,0,9536.24,577.518Zm0,1.369a2.091,2.091,0,0,1,2.13,2.052v8.984h-9.18v-5.27l0.78,0.464a1.432,1.432,0,0,0,.75.21,1.471,1.471,0,0,0,.86-0.282,1.34,1.34,0,0,0,.5-1.481l-0.57-1.813v-2.864h4.73Zm-14.61,3.42v-6.43a0.694,0.694,0,0,1,.71-0.685h7.04a0.694,0.694,0,0,1,.71.685v2.358h0v3.615a0.652,0.652,0,0,0,.03.2l0.6,1.91-1.43-.863a0.752,0.752,0,0,0-.38-0.1h-6.57a0.693,0.693,0,0,1-.71-0.684h0Zm14.61,13.5h-4.92a2.1,2.1,0,0,1-2.13-2.051v-2.463h9.18v2.463A2.09,2.09,0,0,1,9536.24,595.8Zm-9.6-15.733h-1.51a0.685,0.685,0,1,0,0,1.369h1.51A0.685,0.685,0,1,0,9526.64,580.072Zm1.14-3.283h-3.79a0.684,0.684,0,1,0,0,1.368h3.79A0.684,0.684,0,1,0,9527.78,576.789Zm6,16.052a0.685,0.685,0,1,1-.71.685A0.693,0.693,0,0,1,9533.78,592.841Z" transform="translate(-9520.22 -573.812)"/>
</svg>
