<svg xmlns="http://www.w3.org/2000/svg" width="18.19" height="18.188" viewBox="0 0 18.19 18.188">
  <defs>
    <style>
      .cls-1 {
        fill: #a9a9a9;
        fill-rule: evenodd;
      }
    </style>
  </defs>
  <path id="Zikuym" class="cls-1" d="M1879.06,411.363l-8.25,4.228-3.28-1.615,8.1-4.006a0.687,0.687,0,0,1,.6,0Zm5.28,2.613-8.4,4.163-3.14-1.551-0.46-.231,8.27-4.227,0.45,0.23Zm-9.07,5.363-0.01,8.76-8.04-4.2a0.7,0.7,0,0,1-.37-0.619v-8.1l3.4,1.68v2.954a0.685,0.685,0,1,0,1.37,0v-2.271l0.45,0.222Zm9.75-4.154-8.39,4.145-0.01,8.76,8.41-4.393Z" transform="translate(-1866.84 -409.906)"/>
</svg>
