<svg width="32" height="31" viewBox="0 0 32 31" fill="none" xmlns="http://www.w3.org/2000/svg">
<path d="M14.2864 1.84744C15.0637 0.555802 16.9363 0.555803 17.7136 1.84744L21.488 8.11913C21.7672 8.58315 22.2227 8.91409 22.7503 9.03629L29.8814 10.6879C31.35 11.028 31.9287 12.8089 30.9405 13.9473L26.1421 19.475C25.7871 19.884 25.6131 20.4195 25.6599 20.959L26.2928 28.2514C26.4231 29.7533 24.9082 30.854 23.5201 30.2659L16.7802 27.4105C16.2815 27.1993 15.7185 27.1993 15.2198 27.4105L8.47989 30.2659C7.09182 30.854 5.57686 29.7533 5.70721 28.2514L6.34009 20.959C6.38692 20.4195 6.21293 19.884 5.85791 19.475L1.05952 13.9473C0.0713075 12.8089 0.649971 11.028 2.1186 10.6879L9.24967 9.03629C9.77727 8.91409 10.2328 8.58315 10.512 8.11913L14.2864 1.84744Z" fill="#A4A09B"/>
</svg>
