<svg xmlns="http://www.w3.org/2000/svg" width="39" height="39" viewBox="0 0 39 39">
  <defs>
    <style>
      .cls-1 {
        fill-rule: evenodd;
      }
    </style>
  </defs>
  <path id="time" class="cls-1" d="M1372.5,1536a19.5,19.5,0,1,0,19.5,19.5A19.5,19.5,0,0,0,1372.5,1536Zm0,36.21a16.71,16.71,0,1,1,16.71-16.71A16.708,16.708,0,0,1,1372.5,1572.21Zm0-29.25a1.4,1.4,0,0,0-1.39,1.4v9.75h-9.75a1.39,1.39,0,1,0,0,2.78h11.14a1.387,1.387,0,0,0,1.39-1.39v-11.14A1.4,1.4,0,0,0,1372.5,1542.96Z" transform="translate(-1353 -1536)"/>
</svg>
