<svg xmlns="http://www.w3.org/2000/svg" width="34" height="24" viewBox="0 0 34 24">
  <defs>
    <style>
      .cls-1 {
        fill: #48afd1;
        fill-rule: evenodd;
      }
    </style>
  </defs>
  <path id="Truck_blue" data-name="Truck blue" class="cls-1" d="M1508.81,1415.99v-14.53a1.462,1.462,0,0,0-1.46-1.46h-14.46a1.453,1.453,0,0,0-1.45,1.46v14.53a0.482,0.482,0,0,0,.48.49h16.4A0.491,0.491,0,0,0,1508.81,1415.99Zm-11.68,4.98a3.02,3.02,0,1,0,3.02-3.04A3.026,3.026,0,0,0,1497.13,1420.97Zm1.51,0a1.51,1.51,0,1,1,1.51,1.51A1.517,1.517,0,0,1,1498.64,1420.97Zm4.11-3.04h6.76a0.491,0.491,0,0,1,.49.49v1.48a0.491,0.491,0,0,1-.49.49h-5.42A4.014,4.014,0,0,0,1502.75,1417.93Zm-21.41,3.04a3.015,3.015,0,1,0,3.01-3.04A3.024,3.024,0,0,0,1481.34,1420.97Zm1.5,0a1.51,1.51,0,1,1,1.51,1.51A1.517,1.517,0,0,1,1482.84,1420.97Zm-6.84-2.55v1.48a0.489,0.489,0,0,0,.48.49h3.93a3.984,3.984,0,0,1,7.89,0h7.91a4.014,4.014,0,0,1,1.34-2.46h-7.5V1404a0.98,0.98,0,0,0-.97-0.98h-4.58a3.891,3.891,0,0,0-3.22,1.72l-2.95,4.39a3.969,3.969,0,0,0-.67,2.18v6.62h-1.18A0.489,0.489,0,0,0,1476,1418.42Zm4.92-9.18,2.36-3.37a0.507,0.507,0,0,1,.4-0.2h3.68a0.491,0.491,0,0,1,.49.49v3.37a0.489,0.489,0,0,1-.49.48h-6.04A0.486,0.486,0,0,1,1480.92,1409.24Z" transform="translate(-1476 -1400)"/>
</svg>
