<svg xmlns="http://www.w3.org/2000/svg" width="17.31" height="12.438" viewBox="0 0 17.31 12.438">
  <defs>
    <style>
      .cls-1 {
        fill: #fff;
        fill-rule: evenodd;
      }
    </style>
  </defs>
  <path id="Truck" class="cls-1" d="M1401.01,35.229V27.685a0.749,0.749,0,0,0-.74-0.759h-7.36a0.749,0.749,0,0,0-.74.759v7.544a0.248,0.248,0,0,0,.24.253h8.35A0.25,0.25,0,0,0,1401.01,35.229Zm-5.95,2.584a1.54,1.54,0,1,0,1.54-1.574A1.558,1.558,0,0,0,1395.06,37.814Zm0.77,0a0.77,0.77,0,1,1,.77.787A0.782,0.782,0,0,1,1395.83,37.814Zm2.09-1.574h3.45a0.257,0.257,0,0,1,.25.253V37.26a0.257,0.257,0,0,1-.25.253h-2.76A2.048,2.048,0,0,0,1397.92,36.239Zm-10.9,1.574a1.54,1.54,0,1,0,1.54-1.574A1.558,1.558,0,0,0,1387.02,37.814Zm0.77,0a0.77,0.77,0,1,1,.77.787A0.782,0.782,0,0,1,1387.79,37.814Zm-3.48-1.321V37.26a0.248,0.248,0,0,0,.24.253h2a2.025,2.025,0,0,1,4.02,0h4.02a2.148,2.148,0,0,1,.69-1.274h-3.82V29a0.5,0.5,0,0,0-.49-0.506h-2.34a1.949,1.949,0,0,0-1.63.891l-1.51,2.281a2.055,2.055,0,0,0-.33,1.133v3.438h-0.61A0.248,0.248,0,0,0,1384.31,36.492Zm2.5-4.765,1.21-1.75a0.234,0.234,0,0,1,.2-0.107h1.87a0.25,0.25,0,0,1,.25.253v1.75a0.25,0.25,0,0,1-.25.253h-3.08A0.254,0.254,0,0,1,1386.81,31.727Z" transform="translate(-1384.31 -26.938)"/>
</svg>
