<svg xmlns="http://www.w3.org/2000/svg" width="18.28" height="12.344" viewBox="0 0 18.28 12.344">
  <defs>
    <style>
      .cls-1 {
        fill: #a9a9a9;
        fill-rule: evenodd;
      }
    </style>
  </defs>
  <path id="isuf" class="cls-1" d="M1879.27,589.274a0.318,0.318,0,0,1-.32.335h-0.51a2.2,2.2,0,0,0-4.04,0h-6.61V586.9h11.48v2.372Zm-2.85-.275a1.5,1.5,0,1,1-1.5,1.5A1.5,1.5,0,0,1,1876.42,589Zm-15.22-3.2,1.42-.628h4.46v4.438h-0.87a2.21,2.21,0,0,0-4.05,0h-0.84a0.318,0.318,0,0,1-.32-0.335v-3.152A0.346,0.346,0,0,1,1861.2,585.8Zm2.89-3.187a1.025,1.025,0,0,1,.92-0.547h2.07v2.4h-3.95Zm4.71-2.944h9.46a1.021,1.021,0,0,1,1.01,1.041v5.483h-11.48V580.7A1.021,1.021,0,0,1,1868.8,579.668ZM1864.19,589a1.5,1.5,0,1,1-1.5,1.5h0A1.5,1.5,0,0,1,1864.19,589Z" transform="translate(-1861 -579.656)"/>
</svg>
