<svg xmlns="http://www.w3.org/2000/svg" width="11" height="16" viewBox="0 0 11 16">
  <defs>
    <style>
      .cls-1 {
        fill: #fff;
        fill-rule: evenodd;
      }
    </style>
  </defs>
  <path id="Trush" class="cls-1" d="M1859.52,975.913A1.4,1.4,0,0,0,1860.9,977h5.2a1.389,1.389,0,0,0,1.37-1.086l1.03-10.647h-10Zm5.98-9.048a0.5,0.5,0,1,1,1,0l-0.5,8a0.522,0.522,0,0,1-.5.534,0.515,0.515,0,0,1-.5-0.534Zm-2.5,0a0.515,0.515,0,0,1,.5-0.533,0.522,0.522,0,0,1,.5.533v8a0.522,0.522,0,0,1-.5.534,0.515,0.515,0,0,1-.5-0.534v-8h0Zm-2-.533a0.521,0.521,0,0,1,.5.533l0.5,8a0.522,0.522,0,0,1-.5.534,0.515,0.515,0,0,1-.5-0.534l-0.5-8A0.515,0.515,0,0,1,1861,966.332Zm7.2-3.2H1866v-1.068a0.853,0.853,0,0,0-1-1.066h-3a0.906,0.906,0,0,0-1,1.066v1.068h-2.2a0.8,0.8,0,1,0,0,1.6h9.4A0.8,0.8,0,1,0,1868.2,963.133Zm-3.2,0h-3v-1.068h3v1.068h0Z" transform="translate(-1858 -961)"/>
</svg>
