<svg xmlns="http://www.w3.org/2000/svg" width="21" height="16" viewBox="0 0 21 16">
  <defs>
    <style>
      .cls-1 {
        fill: #aeaeae;
        fill-rule: evenodd;
      }
    </style>
  </defs>
  <path id="Warehouse_Management" data-name="Warehouse Management" class="cls-1" d="M1860.28,338.772a3.588,3.588,0,0,0,0,5.072l-0.87.87a4.82,4.82,0,0,1,0-6.813Zm0.87,0.87,0.87,0.87a1.124,1.124,0,0,0,0,1.591l-0.87.871A2.356,2.356,0,0,1,1861.15,339.642Zm4.17-2.642,2.87,8.615h-2.59L1862.72,337h2.6Zm4.1,9.846h1.3l0.41,1.231h1.44l-0.41-1.231h3.83l1.22,3.736a1.844,1.844,0,0,1-1.75,2.418h-1.25l-1.23-3.692h-2.74Zm6.5-1.231h-6.43L1866.62,337h9.3a3.079,3.079,0,0,1,3.08,3.077v2.461A3.079,3.079,0,0,1,1875.92,345.615Z" transform="translate(-1858 -337)"/>
</svg>
