<svg xmlns="http://www.w3.org/2000/svg" width="23.97" height="19" viewBox="0 0 23.97 19">
  <defs>
    <style>
      .cls-1 {
        fill: #a59966;
        fill-rule: evenodd;
      }
    </style>
  </defs>
  <path id="Forma_1" data-name="Forma 1" class="cls-1" d="M2463.61,1045h20.77a1.567,1.567,0,0,0,1.51-.89,1.46,1.46,0,0,0-.31-1.56l-10.08-15.88-0.1-.1a2.006,2.006,0,0,0-1.41-.57,1.983,1.983,0,0,0-1.4.57l-0.1.1-10.08,15.88a1.46,1.46,0,0,0-.31,1.56A1.558,1.558,0,0,0,2463.61,1045Zm10.38-16.17,8.75,13.78h-17.5Zm0,2.64a1.236,1.236,0,0,0-1.24,1.22v5.22a1.245,1.245,0,0,0,2.49,0v-5.22A1.238,1.238,0,0,0,2473.99,1031.47Zm-0.01,8.27a1.21,1.21,0,1,1-1.23,1.21A1.219,1.219,0,0,1,2473.98,1039.74Z" transform="translate(-2462 -1026)"/>
</svg>
